<?xml version="1.0" standalone="no"?>
<!DOCTYPE svg PUBLIC "-//W3C//DTD SVG 20010904//EN"
 "http://www.w3.org/TR/2001/REC-SVG-20010904/DTD/svg10.dtd">
<svg version="1.0" xmlns="http://www.w3.org/2000/svg"
 width="1280.000000pt" height="800.000000pt" viewBox="0 0 1280.000000 800.000000"
 preserveAspectRatio="xMidYMid meet">

<g transform="translate(0.000000,800.000000) scale(0.100000,-0.100000)"
fill="#000000" stroke="none">
<path d="M11745 5096 c-71 -36 -192 -136 -324 -269 -102 -104 -112 -116 -102
-136 17 -31 68 -54 107 -48 19 3 64 24 101 46 37 22 69 39 71 37 1 -2 0 -204
-4 -450 l-7 -446 -41 0 c-90 1 -183 73 -235 184 -35 72 -65 188 -80 305 -13
101 -14 379 -1 476 5 39 5 74 1 78 -23 23 -174 -63 -338 -193 -101 -80 -103
-81 -87 -104 28 -44 70 -52 156 -31 l25 6 6 -99 c17 -257 138 -482 322 -602
73 -48 166 -80 231 -80 27 0 46 -5 48 -12 2 -7 9 -103 15 -213 17 -302 50
-494 100 -593 24 -47 58 -79 71 -66 11 11 30 377 30 584 0 80 3 188 6 241 l7
96 76 31 c317 130 481 405 481 805 0 142 -36 374 -64 413 -12 16 -17 16 -46 4
-67 -28 -340 -249 -340 -275 0 -19 54 -55 92 -61 23 -4 51 3 90 20 l57 25 13
-42 c8 -27 13 -99 13 -197 -1 -179 -13 -237 -78 -370 -50 -103 -141 -198 -235
-248 l-63 -34 8 554 c11 750 12 682 -12 686 -11 1 -42 -9 -70 -22z"/>
<path d="M988 4750 c-244 -39 -427 -166 -521 -361 -61 -127 -78 -209 -84 -414
-9 -289 21 -452 108 -590 79 -126 231 -231 390 -269 161 -39 382 -39 531 0
139 36 286 125 360 217 44 56 102 171 113 225 l7 32 -174 0 -173 0 -19 -52
c-26 -74 -121 -167 -201 -198 -75 -28 -219 -38 -296 -20 -156 37 -247 129
-296 301 -27 95 -27 516 0 604 58 188 163 282 339 305 216 27 380 -57 459
-235 l20 -45 170 0 169 0 -6 28 c-52 218 -238 391 -486 452 -95 24 -318 34
-410 20z"/>
<path d="M2010 4088 c0 -729 0 -731 55 -824 29 -50 92 -99 161 -126 59 -24
207 -40 324 -36 l95 3 3 117 3 116 -108 4 c-118 3 -153 15 -187 61 -21 28 -21
37 -24 693 l-2 664 -160 0 -160 0 0 -672z"/>
<path d="M4060 4155 c0 -514 2 -618 16 -683 40 -193 164 -312 375 -359 104
-23 376 -23 479 0 209 47 345 176 385 364 21 97 20 448 0 528 -42 161 -154
281 -312 334 -163 55 -406 46 -561 -20 -24 -11 -46 -19 -48 -19 -2 0 -4 104
-4 230 l0 230 -165 0 -165 0 0 -605z m765 -26 c55 -17 78 -31 121 -74 77 -76
87 -118 82 -343 -3 -199 -14 -237 -80 -304 -59 -58 -119 -81 -228 -86 -117 -5
-186 17 -250 79 -77 75 -85 106 -85 329 0 184 1 198 24 248 64 141 241 205
416 151z"/>
<path d="M10140 4529 c0 -216 -1 -231 -17 -224 -137 57 -305 82 -441 66 -276
-34 -427 -159 -477 -398 -19 -88 -19 -370 -1 -474 37 -206 167 -334 391 -385
96 -22 354 -25 454 -5 200 39 322 134 383 296 23 60 23 64 26 708 l3 647 -161
0 -160 0 0 -231z m-179 -407 c64 -28 115 -76 147 -136 27 -50 27 -53 27 -251
0 -226 -4 -242 -76 -320 -62 -67 -124 -90 -244 -90 -125 0 -183 23 -250 97
-64 71 -75 117 -75 313 0 195 12 246 73 312 71 77 144 104 267 99 58 -2 100
-10 131 -24z"/>
<path d="M5770 3925 l0 -815 160 0 160 0 2 608 3 607 230 -613 230 -612 149 2
150 3 223 585 c122 322 226 595 230 608 4 12 8 -251 8 -585 l0 -608 163 -3
162 -2 0 820 0 820 -232 -2 -233 -3 -225 -596 c-124 -328 -230 -606 -236 -619
-9 -20 -44 67 -245 599 l-234 621 -232 0 -233 0 0 -815z"/>
<path d="M8302 4370 c-144 -20 -275 -84 -360 -174 -99 -106 -145 -228 -158
-416 -22 -330 115 -567 376 -654 206 -68 518 -48 702 45 55 28 168 98 168 104
0 7 -191 155 -199 155 -6 0 -36 -16 -68 -35 -156 -95 -380 -111 -517 -37 -89
49 -146 141 -146 239 l0 43 482 0 481 0 -6 118 c-12 217 -56 333 -171 448
-111 111 -230 158 -426 168 -52 3 -124 1 -158 -4z m260 -240 c103 -38 188
-157 188 -262 l0 -28 -326 0 -326 0 7 48 c31 212 240 323 457 242z"/>
<path d="M2670 3933 c0 -473 4 -506 62 -615 85 -160 254 -230 553 -230 344 0
514 96 581 328 15 51 18 121 22 502 l3 443 -163 -3 -163 -3 -5 -420 c-6 -465
-5 -462 -73 -534 -53 -56 -119 -81 -212 -81 -129 0 -207 48 -257 155 -23 49
-23 56 -26 468 l-3 417 -159 0 -160 0 0 -427z"/>
<path d="M12067 3502 l-117 -117 118 -118 117 -117 118 118 117 117 -118 118
-117 117 -118 -118z"/>
</g>
</svg>
